<mxfile host="app.diagrams.net" modified="2023-09-05T21:59:40.476Z" agent="Mozilla/5.0 (Windows NT 10.0; Win64; x64) AppleWebKit/537.36 (KHTML, like Gecko) Chrome/116.0.0.0 Safari/537.36" etag="JY2L69Ecu2HPbvbvYh7T" version="21.6.8" type="github">
  <diagram id="C5RBs43oDa-KdzZeNtuy" name="MTR Process">
    <mxGraphModel dx="1290" dy="649" grid="1" gridSize="10" guides="1" tooltips="1" connect="1" arrows="1" fold="1" page="1" pageScale="1" pageWidth="827" pageHeight="1169" math="0" shadow="0">
      <root>
        <mxCell id="WIyWlLk6GJQsqaUBKTNV-0" />
        <mxCell id="WIyWlLk6GJQsqaUBKTNV-1" parent="WIyWlLk6GJQsqaUBKTNV-0" />
        <mxCell id="vpCC1clSXgHAt5NISDAk-2" value="" style="edgeStyle=orthogonalEdgeStyle;rounded=0;orthogonalLoop=1;jettySize=auto;html=1;" edge="1" parent="WIyWlLk6GJQsqaUBKTNV-1" source="vpCC1clSXgHAt5NISDAk-0" target="vpCC1clSXgHAt5NISDAk-1">
          <mxGeometry relative="1" as="geometry" />
        </mxCell>
        <mxCell id="vpCC1clSXgHAt5NISDAk-0" value="PURCHASING&lt;br&gt;Material MTR created with original PO" style="rounded=1;whiteSpace=wrap;html=1;" vertex="1" parent="WIyWlLk6GJQsqaUBKTNV-1">
          <mxGeometry x="354" y="20" width="120" height="60" as="geometry" />
        </mxCell>
        <mxCell id="vpCC1clSXgHAt5NISDAk-4" value="" style="edgeStyle=orthogonalEdgeStyle;rounded=0;orthogonalLoop=1;jettySize=auto;html=1;" edge="1" parent="WIyWlLk6GJQsqaUBKTNV-1" source="vpCC1clSXgHAt5NISDAk-1" target="vpCC1clSXgHAt5NISDAk-3">
          <mxGeometry relative="1" as="geometry" />
        </mxCell>
        <mxCell id="vpCC1clSXgHAt5NISDAk-1" value="PURCHASING&lt;br&gt;Digital MTR Received" style="whiteSpace=wrap;html=1;rounded=1;" vertex="1" parent="WIyWlLk6GJQsqaUBKTNV-1">
          <mxGeometry x="354" y="160" width="120" height="60" as="geometry" />
        </mxCell>
        <mxCell id="vpCC1clSXgHAt5NISDAk-8" value="" style="edgeStyle=orthogonalEdgeStyle;rounded=0;orthogonalLoop=1;jettySize=auto;html=1;" edge="1" parent="WIyWlLk6GJQsqaUBKTNV-1" source="vpCC1clSXgHAt5NISDAk-3" target="vpCC1clSXgHAt5NISDAk-7">
          <mxGeometry relative="1" as="geometry" />
        </mxCell>
        <mxCell id="vpCC1clSXgHAt5NISDAk-3" value="PURCHASING&lt;br style=&quot;border-color: var(--border-color);&quot;&gt;Digital MTR Filed" style="whiteSpace=wrap;html=1;rounded=1;" vertex="1" parent="WIyWlLk6GJQsqaUBKTNV-1">
          <mxGeometry x="354" y="300" width="120" height="60" as="geometry" />
        </mxCell>
        <mxCell id="vpCC1clSXgHAt5NISDAk-10" value="" style="edgeStyle=orthogonalEdgeStyle;rounded=0;orthogonalLoop=1;jettySize=auto;html=1;" edge="1" parent="WIyWlLk6GJQsqaUBKTNV-1" source="vpCC1clSXgHAt5NISDAk-7" target="vpCC1clSXgHAt5NISDAk-9">
          <mxGeometry relative="1" as="geometry" />
        </mxCell>
        <mxCell id="vpCC1clSXgHAt5NISDAk-7" value="&lt;br&gt;&lt;span style=&quot;color: rgb(0, 0, 0); font-family: Helvetica; font-size: 12px; font-style: normal; font-variant-ligatures: normal; font-variant-caps: normal; font-weight: 400; letter-spacing: normal; orphans: 2; text-align: center; text-indent: 0px; text-transform: none; widows: 2; word-spacing: 0px; -webkit-text-stroke-width: 0px; background-color: rgb(251, 251, 251); text-decoration-thickness: initial; text-decoration-style: initial; text-decoration-color: initial; float: none; display: inline !important;&quot;&gt;RECEIVING&lt;br&gt;Material Arrives&lt;/span&gt;&lt;br style=&quot;border-color: var(--border-color); color: rgb(0, 0, 0); font-family: Helvetica; font-size: 12px; font-style: normal; font-variant-ligatures: normal; font-variant-caps: normal; font-weight: 400; letter-spacing: normal; orphans: 2; text-align: center; text-indent: 0px; text-transform: none; widows: 2; word-spacing: 0px; -webkit-text-stroke-width: 0px; background-color: rgb(251, 251, 251); text-decoration-thickness: initial; text-decoration-style: initial; text-decoration-color: initial;&quot;&gt;&lt;span style=&quot;color: rgb(0, 0, 0); font-family: Helvetica; font-size: 12px; font-style: normal; font-variant-ligatures: normal; font-variant-caps: normal; font-weight: 400; letter-spacing: normal; orphans: 2; text-align: center; text-indent: 0px; text-transform: none; widows: 2; word-spacing: 0px; -webkit-text-stroke-width: 0px; background-color: rgb(251, 251, 251); text-decoration-thickness: initial; text-decoration-style: initial; text-decoration-color: initial; float: none; display: inline !important;&quot;&gt;(With MTR)&lt;/span&gt;&lt;br&gt;" style="whiteSpace=wrap;html=1;rounded=1;" vertex="1" parent="WIyWlLk6GJQsqaUBKTNV-1">
          <mxGeometry x="354" y="440" width="120" height="60" as="geometry" />
        </mxCell>
        <mxCell id="vpCC1clSXgHAt5NISDAk-12" value="" style="edgeStyle=orthogonalEdgeStyle;rounded=0;orthogonalLoop=1;jettySize=auto;html=1;" edge="1" parent="WIyWlLk6GJQsqaUBKTNV-1" source="vpCC1clSXgHAt5NISDAk-9" target="vpCC1clSXgHAt5NISDAk-11">
          <mxGeometry relative="1" as="geometry" />
        </mxCell>
        <mxCell id="vpCC1clSXgHAt5NISDAk-14" value="" style="edgeStyle=orthogonalEdgeStyle;rounded=0;orthogonalLoop=1;jettySize=auto;html=1;" edge="1" parent="WIyWlLk6GJQsqaUBKTNV-1" source="vpCC1clSXgHAt5NISDAk-9" target="vpCC1clSXgHAt5NISDAk-13">
          <mxGeometry relative="1" as="geometry" />
        </mxCell>
        <mxCell id="vpCC1clSXgHAt5NISDAk-9" value="RECEIVING&lt;br&gt;Matches Physical MTR to Physical Heat #" style="whiteSpace=wrap;html=1;rounded=1;" vertex="1" parent="WIyWlLk6GJQsqaUBKTNV-1">
          <mxGeometry x="354" y="580" width="120" height="60" as="geometry" />
        </mxCell>
        <mxCell id="vpCC1clSXgHAt5NISDAk-11" value="MTR MATCHES&lt;br&gt;&amp;nbsp;the Physical Material" style="whiteSpace=wrap;html=1;rounded=1;" vertex="1" parent="WIyWlLk6GJQsqaUBKTNV-1">
          <mxGeometry x="160" y="580" width="120" height="60" as="geometry" />
        </mxCell>
        <mxCell id="vpCC1clSXgHAt5NISDAk-16" value="" style="edgeStyle=orthogonalEdgeStyle;rounded=0;orthogonalLoop=1;jettySize=auto;html=1;" edge="1" parent="WIyWlLk6GJQsqaUBKTNV-1" source="vpCC1clSXgHAt5NISDAk-13" target="vpCC1clSXgHAt5NISDAk-15">
          <mxGeometry relative="1" as="geometry" />
        </mxCell>
        <mxCell id="vpCC1clSXgHAt5NISDAk-13" value="MTR DOES NOT Match the physical material" style="whiteSpace=wrap;html=1;rounded=1;" vertex="1" parent="WIyWlLk6GJQsqaUBKTNV-1">
          <mxGeometry x="554" y="580" width="120" height="60" as="geometry" />
        </mxCell>
        <mxCell id="vpCC1clSXgHAt5NISDAk-18" value="" style="edgeStyle=orthogonalEdgeStyle;rounded=0;orthogonalLoop=1;jettySize=auto;html=1;" edge="1" parent="WIyWlLk6GJQsqaUBKTNV-1" source="vpCC1clSXgHAt5NISDAk-15" target="vpCC1clSXgHAt5NISDAk-17">
          <mxGeometry relative="1" as="geometry" />
        </mxCell>
        <mxCell id="vpCC1clSXgHAt5NISDAk-15" value="RECEIVING&lt;br&gt;Notify QC and Purchasing of mismatch" style="whiteSpace=wrap;html=1;rounded=1;" vertex="1" parent="WIyWlLk6GJQsqaUBKTNV-1">
          <mxGeometry x="554" y="720" width="120" height="60" as="geometry" />
        </mxCell>
        <mxCell id="vpCC1clSXgHAt5NISDAk-20" value="" style="edgeStyle=orthogonalEdgeStyle;rounded=0;orthogonalLoop=1;jettySize=auto;html=1;" edge="1" parent="WIyWlLk6GJQsqaUBKTNV-1" source="vpCC1clSXgHAt5NISDAk-17" target="vpCC1clSXgHAt5NISDAk-19">
          <mxGeometry relative="1" as="geometry" />
        </mxCell>
        <mxCell id="vpCC1clSXgHAt5NISDAk-22" value="" style="edgeStyle=orthogonalEdgeStyle;rounded=0;orthogonalLoop=1;jettySize=auto;html=1;" edge="1" parent="WIyWlLk6GJQsqaUBKTNV-1" source="vpCC1clSXgHAt5NISDAk-17" target="vpCC1clSXgHAt5NISDAk-21">
          <mxGeometry relative="1" as="geometry" />
        </mxCell>
        <mxCell id="vpCC1clSXgHAt5NISDAk-17" value="Does Material Match Spec?" style="whiteSpace=wrap;html=1;rounded=1;" vertex="1" parent="WIyWlLk6GJQsqaUBKTNV-1">
          <mxGeometry x="554" y="860" width="120" height="60" as="geometry" />
        </mxCell>
        <mxCell id="vpCC1clSXgHAt5NISDAk-24" value="" style="edgeStyle=orthogonalEdgeStyle;rounded=0;orthogonalLoop=1;jettySize=auto;html=1;" edge="1" parent="WIyWlLk6GJQsqaUBKTNV-1" source="vpCC1clSXgHAt5NISDAk-19" target="vpCC1clSXgHAt5NISDAk-23">
          <mxGeometry relative="1" as="geometry">
            <Array as="points">
              <mxPoint x="814" y="1050" />
              <mxPoint x="420" y="1050" />
            </Array>
          </mxGeometry>
        </mxCell>
        <mxCell id="vpCC1clSXgHAt5NISDAk-19" value="YES&lt;br&gt;PURCHASING&lt;br&gt;to request matching MTR" style="whiteSpace=wrap;html=1;rounded=1;" vertex="1" parent="WIyWlLk6GJQsqaUBKTNV-1">
          <mxGeometry x="754" y="860" width="120" height="60" as="geometry" />
        </mxCell>
        <mxCell id="vpCC1clSXgHAt5NISDAk-28" value="" style="edgeStyle=orthogonalEdgeStyle;rounded=0;orthogonalLoop=1;jettySize=auto;html=1;" edge="1" parent="WIyWlLk6GJQsqaUBKTNV-1" source="vpCC1clSXgHAt5NISDAk-21" target="vpCC1clSXgHAt5NISDAk-27">
          <mxGeometry relative="1" as="geometry" />
        </mxCell>
        <mxCell id="vpCC1clSXgHAt5NISDAk-21" value="NO&lt;br&gt;QUALITY&lt;br&gt;Reject shipment and initiate NCMR" style="whiteSpace=wrap;html=1;rounded=1;" vertex="1" parent="WIyWlLk6GJQsqaUBKTNV-1">
          <mxGeometry x="354" y="860" width="120" height="60" as="geometry" />
        </mxCell>
        <mxCell id="vpCC1clSXgHAt5NISDAk-30" value="" style="edgeStyle=orthogonalEdgeStyle;rounded=0;orthogonalLoop=1;jettySize=auto;html=1;" edge="1" parent="WIyWlLk6GJQsqaUBKTNV-1" source="vpCC1clSXgHAt5NISDAk-23" target="vpCC1clSXgHAt5NISDAk-29">
          <mxGeometry relative="1" as="geometry" />
        </mxCell>
        <mxCell id="vpCC1clSXgHAt5NISDAk-23" value="RECEIVING&lt;br&gt;Receives in the physical material with the Heat number entered in GSS" style="whiteSpace=wrap;html=1;rounded=1;" vertex="1" parent="WIyWlLk6GJQsqaUBKTNV-1">
          <mxGeometry x="354" y="1120" width="136" height="70" as="geometry" />
        </mxCell>
        <mxCell id="vpCC1clSXgHAt5NISDAk-26" value="" style="endArrow=classic;html=1;rounded=0;" edge="1" parent="WIyWlLk6GJQsqaUBKTNV-1" source="vpCC1clSXgHAt5NISDAk-11" target="vpCC1clSXgHAt5NISDAk-23">
          <mxGeometry width="50" height="50" relative="1" as="geometry">
            <mxPoint x="360" y="910" as="sourcePoint" />
            <mxPoint x="410" y="860" as="targetPoint" />
            <Array as="points">
              <mxPoint x="220" y="1050" />
              <mxPoint x="420" y="1050" />
            </Array>
          </mxGeometry>
        </mxCell>
        <mxCell id="vpCC1clSXgHAt5NISDAk-27" value="Initiate Return Process" style="whiteSpace=wrap;html=1;rounded=1;" vertex="1" parent="WIyWlLk6GJQsqaUBKTNV-1">
          <mxGeometry x="354" y="950" width="120" height="60" as="geometry" />
        </mxCell>
        <mxCell id="vpCC1clSXgHAt5NISDAk-29" value="OPERATORS&lt;br&gt;When issuing, material is matched to ensure what is issued corresponds to what was used" style="whiteSpace=wrap;html=1;rounded=1;" vertex="1" parent="WIyWlLk6GJQsqaUBKTNV-1">
          <mxGeometry x="343" y="1275" width="158" height="75" as="geometry" />
        </mxCell>
      </root>
    </mxGraphModel>
  </diagram>
</mxfile>
